<svg xmlns="http://www.w3.org/2000/svg" width="22.112" height="22.111" viewBox="0 0 22.112 22.111">
  <path id="Icon_ionic-ios-call" data-name="Icon ionic-ios-call" d="M25.964,21.816a18.573,18.573,0,0,0-3.88-2.6c-1.163-.558-1.589-.547-2.412.046-.685.5-1.128.956-1.917.783A11.435,11.435,0,0,1,13.9,17.2a11.353,11.353,0,0,1-2.849-3.851c-.167-.794.294-1.232.783-1.917.593-.823.61-1.249.046-2.412a18.206,18.206,0,0,0-2.6-3.88c-.846-.846-1.036-.662-1.5-.5a8.549,8.549,0,0,0-1.376.731A4.15,4.15,0,0,0,4.757,7.12c-.328.708-.708,2.026,1.226,5.469a30.514,30.514,0,0,0,5.365,7.155h0l.006.006.006.006h0a30.633,30.633,0,0,0,7.155,5.365c3.442,1.934,4.761,1.554,5.469,1.226a4.08,4.08,0,0,0,1.744-1.652,8.549,8.549,0,0,0,.731-1.376C26.626,22.852,26.816,22.662,25.964,21.816Z" transform="translate(-4.49 -4.502)" fill="#fff"/>
</svg>
